<svg xmlns="http://www.w3.org/2000/svg" viewBox="0 0 820 560" font-family="Inter,'Relative Book Pro',system-ui,sans-serif">
<rect width="820" height="560" fill="#ffffff"/>
<rect x="0" y="0" width="6" height="560" fill="#ff6600"/>
<rect x="230" y="20" width="13" height="13" fill="#d6d3d1"/><text x="249" y="31" font-size="12" fill="#78716c">όλα τα classified (~294k)</text>
<rect x="400" y="20" width="13" height="13" fill="#ff6600"/><text x="419" y="31" font-size="12" fill="#78716c">επιλεγμένα (~2,2k)</text>
<text x="220" y="61" font-size="12.5" fill="#0c0a09" text-anchor="end">φωνητική υποκατάσταση</text>
<rect x="230" y="48" width="392.5" height="13" fill="#d6d3d1"/>
<text x="627.5" y="59" font-size="11" fill="#78716c" font-family="'Roboto Mono',ui-monospace,monospace">23,7</text>
<rect x="230" y="64" width="501.8" height="13" fill="#ff6600"/>
<text x="736.8" y="75" font-size="11" fill="#ff6600" font-family="'Roboto Mono',ui-monospace,monospace">30,3</text>
<text x="220" y="101" font-size="12.5" fill="#0c0a09" text-anchor="end">στίξη / κεφαλαία</text>
<rect x="230" y="88" width="387.6" height="13" fill="#d6d3d1"/>
<text x="622.6" y="99" font-size="11" fill="#78716c" font-family="'Roboto Mono',ui-monospace,monospace">23,4</text>
<rect x="230" y="104" width="298.1" height="13" fill="#ff6600"/>
<text x="533.1" y="115" font-size="11" fill="#ff6600" font-family="'Roboto Mono',ui-monospace,monospace">18,0</text>
<text x="220" y="141" font-size="12.5" fill="#0c0a09" text-anchor="end">ομόηχα</text>
<rect x="230" y="128" width="102.7" height="13" fill="#d6d3d1"/>
<text x="337.7" y="139" font-size="11" fill="#78716c" font-family="'Roboto Mono',ui-monospace,monospace">6,2</text>
<rect x="230" y="144" width="106.0" height="13" fill="#ff6600"/>
<text x="341.0" y="155" font-size="11" fill="#ff6600" font-family="'Roboto Mono',ui-monospace,monospace">6,4</text>
<text x="220" y="181" font-size="12.5" fill="#0c0a09" text-anchor="end">ονόματα προσώπων</text>
<rect x="230" y="168" width="94.4" height="13" fill="#d6d3d1"/>
<text x="329.4" y="179" font-size="11" fill="#78716c" font-family="'Roboto Mono',ui-monospace,monospace">5,7</text>
<rect x="230" y="184" width="71.2" height="13" fill="#ff6600"/>
<text x="306.2" y="195" font-size="11" fill="#ff6600" font-family="'Roboto Mono',ui-monospace,monospace">4,3</text>
<text x="220" y="221" font-size="12.5" fill="#0c0a09" text-anchor="end">εισαγωγή</text>
<rect x="230" y="208" width="89.4" height="13" fill="#d6d3d1"/>
<text x="324.4" y="219" font-size="11" fill="#78716c" font-family="'Roboto Mono',ui-monospace,monospace">5,4</text>
<rect x="230" y="224" width="76.2" height="13" fill="#ff6600"/>
<text x="311.2" y="235" font-size="11" fill="#ff6600" font-family="'Roboto Mono',ui-monospace,monospace">4,6</text>
<text x="220" y="261" font-size="12.5" fill="#0c0a09" text-anchor="end">σημασιολογική</text>
<rect x="230" y="248" width="81.2" height="13" fill="#d6d3d1"/>
<text x="316.2" y="259" font-size="11" fill="#78716c" font-family="'Roboto Mono',ui-monospace,monospace">4,9</text>
<rect x="230" y="264" width="76.2" height="13" fill="#ff6600"/>
<text x="311.2" y="275" font-size="11" fill="#ff6600" font-family="'Roboto Mono',ui-monospace,monospace">4,6</text>
<text x="220" y="301" font-size="12.5" fill="#0c0a09" text-anchor="end">κλίση ρήματος</text>
<rect x="230" y="288" width="69.6" height="13" fill="#d6d3d1"/>
<text x="304.6" y="299" font-size="11" fill="#78716c" font-family="'Roboto Mono',ui-monospace,monospace">4,2</text>
<rect x="230" y="304" width="74.5" height="13" fill="#ff6600"/>
<text x="309.5" y="315" font-size="11" fill="#ff6600" font-family="'Roboto Mono',ui-monospace,monospace">4,5</text>
<text x="220" y="341" font-size="12.5" fill="#0c0a09" text-anchor="end">πτώση</text>
<rect x="230" y="328" width="69.6" height="13" fill="#d6d3d1"/>
<text x="304.6" y="339" font-size="11" fill="#78716c" font-family="'Roboto Mono',ui-monospace,monospace">4,2</text>
<rect x="230" y="344" width="72.9" height="13" fill="#ff6600"/>
<text x="307.9" y="355" font-size="11" fill="#ff6600" font-family="'Roboto Mono',ui-monospace,monospace">4,4</text>
<text x="220" y="381" font-size="12.5" fill="#0c0a09" text-anchor="end">όρια λέξης</text>
<rect x="230" y="368" width="53.0" height="13" fill="#d6d3d1"/>
<text x="288.0" y="379" font-size="11" fill="#78716c" font-family="'Roboto Mono',ui-monospace,monospace">3,2</text>
<rect x="230" y="384" width="66.2" height="13" fill="#ff6600"/>
<text x="301.2" y="395" font-size="11" fill="#ff6600" font-family="'Roboto Mono',ui-monospace,monospace">4,0</text>
<text x="220" y="421" font-size="12.5" fill="#0c0a09" text-anchor="end">τοπωνύμια</text>
<rect x="230" y="408" width="43.1" height="13" fill="#d6d3d1"/>
<text x="278.1" y="419" font-size="11" fill="#78716c" font-family="'Roboto Mono',ui-monospace,monospace">2,6</text>
<rect x="230" y="424" width="53.0" height="13" fill="#ff6600"/>
<text x="288.0" y="435" font-size="11" fill="#ff6600" font-family="'Roboto Mono',ui-monospace,monospace">3,2</text>
<text x="220" y="461" font-size="12.5" fill="#0c0a09" text-anchor="end">αριθμοί/ημερομηνίες</text>
<rect x="230" y="448" width="38.1" height="13" fill="#d6d3d1"/>
<text x="273.1" y="459" font-size="11" fill="#78716c" font-family="'Roboto Mono',ui-monospace,monospace">2,3</text>
<rect x="230" y="464" width="49.7" height="13" fill="#ff6600"/>
<text x="284.7" y="475" font-size="11" fill="#ff6600" font-family="'Roboto Mono',ui-monospace,monospace">3,0</text>
<text x="220" y="501" font-size="12.5" fill="#0c0a09" text-anchor="end">ακρωνύμια</text>
<rect x="230" y="488" width="26.5" height="13" fill="#d6d3d1"/>
<text x="261.5" y="499" font-size="11" fill="#78716c" font-family="'Roboto Mono',ui-monospace,monospace">1,6</text>
<rect x="230" y="504" width="31.5" height="13" fill="#ff6600"/>
<text x="266.5" y="515" font-size="11" fill="#ff6600" font-family="'Roboto Mono',ui-monospace,monospace">1,9</text>
<text x="800" y="548" font-size="12" fill="#78716c" text-anchor="end">% της κάθε ομάδας</text>
</svg>